<?xml version="1.0" encoding="UTF-8" standalone="no"?>
<svg
   xmlns:dc="http://purl.org/dc/elements/1.1/"
   xmlns:cc="http://creativecommons.org/ns#"
   xmlns:rdf="http://www.w3.org/1999/02/22-rdf-syntax-ns#"
   xmlns:svg="http://www.w3.org/2000/svg"
   xmlns="http://www.w3.org/2000/svg"
   xmlns:sodipodi="http://sodipodi.sourceforge.net/DTD/sodipodi-0.dtd"
   xmlns:inkscape="http://www.inkscape.org/namespaces/inkscape"
   width="512"
   height="512"
   viewBox="0 0 135.46666 135.46667"
   version="1.1"
   id="svg7203"
   inkscape:version="1.0.1 (3bc2e813f5, 2020-09-07)"
   sodipodi:docname="birds-kitchen.svg">
  <defs
     id="defs7197" />
  <sodipodi:namedview
     id="base"
     pagecolor="#ffffff"
     bordercolor="#666666"
     borderopacity="1.0"
     inkscape:pageopacity="0.0"
     inkscape:pageshadow="2"
     inkscape:zoom="0.72444703"
     inkscape:cx="197.34206"
     inkscape:cy="271.17971"
     inkscape:document-units="mm"
     inkscape:current-layer="layer1"
     inkscape:document-rotation="0"
     showgrid="false"
     units="px"
     inkscape:window-width="1920"
     inkscape:window-height="1050"
     inkscape:window-x="1440"
     inkscape:window-y="210"
     inkscape:window-maximized="1" />
  <metadata
     id="metadata7200">
    <rdf:RDF>
      <cc:Work
         rdf:about="">
        <dc:format>image/svg+xml</dc:format>
        <dc:type
           rdf:resource="http://purl.org/dc/dcmitype/StillImage" />
        <dc:title></dc:title>
      </cc:Work>
    </rdf:RDF>
  </metadata>
  <g
     inkscape:label="Calque 1"
     inkscape:groupmode="layer"
     id="layer1">
    <g
       id="g8420"
       transform="matrix(0.9369895,0,0,0.93366686,-27.976699,-15.39666)">
      <rect
         style="fill:#008080;stroke:#008080;stroke-width:13.2292;stroke-linejoin:round;stroke-miterlimit:4;stroke-dasharray:none;stroke-opacity:1;paint-order:stroke fill markers"
         id="rect7910"
         width="131.35458"
         height="131.3546"
         x="36.472672"
         y="23.105129" />
      <g
         id="g8055"
         transform="translate(0.88297653,4.6353562)">
        <g
           id="g7982"
           transform="matrix(4.100625,0,0,4.100625,-425.90042,-652.68923)">
          <g
             id="g450"
             transform="matrix(0.35277777,0,0,-0.35277777,141.88546,188.28565)">
            <path
               d="m 0,0 h -70.872 c -0.536,0 -0.972,-0.464 -0.972,-1 0,-0.536 0.436,-1 0.972,-1 H 0 c 0.536,0 0.972,0.464 0.972,1 0,0.536 -0.436,1 -0.972,1"
               style="fill:#a8f2e5;fill-opacity:1;fill-rule:nonzero;stroke:none"
               id="path452" />
          </g>
          <g
             id="g454"
             transform="matrix(0.35277777,0,0,-0.35277777,121.0667,173.25259)">
            <path
               d="M 0,0 C -0.334,0.33 -0.522,0.779 -0.522,1.249 -0.522,1.718 -0.334,2.168 0,2.498 1.263,3.745 1.789,4.865 1.345,3.871 1.197,4.169 0.885,4.97 0.593,5.269 0.034,5.842 -0.724,6.387 -1.541,6.387 H -1.55 C -1.778,6.387 -2.1,6.34 -2.317,6.293 -2.192,4.636 -2.705,2.773 -3.644,1.444 L 3.55,-5.575 c 0.551,0.167 1.134,0.276 1.742,0.374 z"
               style="fill:#fed54a;fill-opacity:1;fill-rule:nonzero;stroke:none"
               id="path456" />
          </g>
          <g
             id="g458"
             transform="matrix(0.35277777,0,0,-0.35277777,119.00391,171.05577)">
            <path
               d="M 0,0 C 0.031,-0.09 0.06,-0.181 0.08,-0.272 0.06,-0.181 0.031,-0.09 0,0"
               style="fill:#fed54a;fill-opacity:1;fill-rule:nonzero;stroke:none"
               id="path460" />
          </g>
          <g
             id="g462"
             transform="matrix(0.35277777,0,0,-0.35277777,118.72581,170.62814)">
            <path
               d="M 0,0 C 0.118,-0.123 0.224,-0.245 0.319,-0.367 0.224,-0.245 0.118,-0.123 0,0"
               style="fill:#fed54a;fill-opacity:1;fill-rule:nonzero;stroke:none"
               id="path464" />
          </g>
          <g
             id="g466"
             transform="matrix(0.35277777,0,0,-0.35277777,118.94531,170.9232)">
            <path
               d="M 0,0 C 0.048,-0.09 0.095,-0.181 0.131,-0.272 0.095,-0.181 0.049,-0.09 0,0"
               style="fill:#fed54a;fill-opacity:1;fill-rule:nonzero;stroke:none"
               id="path468" />
          </g>
          <g
             id="g470"
             transform="matrix(0.35277777,0,0,-0.35277777,115.45059,174.30691)">
            <path
               d="M 0,0 C -0.094,0.05 -0.188,0.107 -0.281,0.171 -0.188,0.107 -0.094,0.05 0,0"
               style="fill:#fed54a;fill-opacity:1;fill-rule:nonzero;stroke:none"
               id="path472" />
          </g>
          <g
             id="g474"
             transform="matrix(0.35277777,0,0,-0.35277777,118.50314,173.26275)">
            <path
               d="m 0,0 c -0.34,0.33 -0.533,0.784 -0.533,1.258 -0.001,0.474 0.19,0.928 0.53,1.259 C 0.287,2.8 1.001,3.562 1.357,4.516 1.548,5.029 1.595,5.5 1.504,5.954 1.29,6.003 1.07,6.031 0.843,6.034 -0.011,6.032 -0.821,5.712 -1.428,5.105 -2.132,4.4 -2.454,3.43 -2.311,2.442 -2.232,1.895 -2.416,1.341 -2.808,0.95 -3.199,0.559 -3.752,0.375 -4.3,0.454 -5.286,0.596 -6.258,0.275 -6.962,-0.429 c -0.621,-0.622 -0.966,-1.48 -0.947,-2.356 0.004,-0.152 0.022,-0.3 0.047,-0.445 -0.245,0.039 -0.488,0.117 -0.73,0.237 1.249,-0.625 2.531,-0.09 4.012,0.924 0.448,0.307 1.499,1.025 2.551,0.194 0.054,-0.042 0.104,-0.087 0.152,-0.135 L 5.639,-9.5 c 0.136,0.239 0.279,0.474 0.44,0.698 0.405,0.564 0.891,1.067 1.443,1.512 z"
               style="fill:#fed54a;fill-opacity:1;fill-rule:nonzero;stroke:none"
               id="path476" />
          </g>
          <g
             id="g478"
             transform="matrix(0.35277777,0,0,-0.35277777,118.86086,170.78996)">
            <path
               d="M 0,0 C 0.067,-0.092 0.133,-0.185 0.188,-0.277 0.133,-0.185 0.068,-0.092 0,0"
               style="fill:#fed54a;fill-opacity:1;fill-rule:nonzero;stroke:none"
               id="path480" />
          </g>
          <g
             id="g482"
             transform="matrix(0.35277777,0,0,-0.35277777,115.20135,174.12928)">
            <path
               d="M 0,0 C 0.113,-0.103 0.227,-0.193 0.34,-0.275 0.227,-0.193 0.113,-0.103 0,0"
               style="fill:#fed54a;fill-opacity:1;fill-rule:nonzero;stroke:none"
               id="path484" />
          </g>
          <g
             id="g486"
             transform="matrix(0.35277777,0,0,-0.35277777,122.04418,180.48238)">
            <path
               d="M 0,0 C -0.072,0.131 -0.148,0.261 -0.217,0.392 -0.148,0.26 -0.072,0.131 0,0"
               style="fill:#f08929;fill-opacity:1;fill-rule:nonzero;stroke:none"
               id="path488" />
          </g>
          <g
             id="g490"
             transform="matrix(0.35277777,0,0,-0.35277777,123.42661,182.30949)">
            <path
               d="M 0,0 C 0.225,-0.223 0.454,-0.437 0.686,-0.648 0.454,-0.437 0.225,-0.223 0,0"
               style="fill:#f08929;fill-opacity:1;fill-rule:nonzero;stroke:none"
               id="path492" />
          </g>
          <g
             id="g494"
             transform="matrix(0.35277777,0,0,-0.35277777,128.45994,177.92626)">
            <path
               d="M 0,0 C 0.243,-0.204 0.475,-0.408 0.688,-0.613 0.474,-0.408 0.243,-0.204 0,0"
               style="fill:#f08929;fill-opacity:1;fill-rule:nonzero;stroke:none"
               id="path496" />
          </g>
          <g
             id="g498"
             transform="matrix(0.35277777,0,0,-0.35277777,128.1332,177.67219)">
            <path
               d="M 0,0 C 0.278,-0.2 0.536,-0.401 0.783,-0.602 0.535,-0.401 0.278,-0.2 0,0"
               style="fill:#f08929;fill-opacity:1;fill-rule:nonzero;stroke:none"
               id="path500" />
          </g>
          <g
             id="g502"
             transform="matrix(0.35277777,0,0,-0.35277777,128.9304,178.38011)">
            <path
               d="M 0,0 C -0.192,0.217 -0.399,0.434 -0.622,0.65 -0.399,0.434 -0.192,0.217 0,0"
               style="fill:#f08929;fill-opacity:1;fill-rule:nonzero;stroke:none"
               id="path504" />
          </g>
          <g
             id="g506"
             transform="matrix(0.35277777,0,0,-0.35277777,128.93672,178.38709)">
            <path
               d="M 0,0 C 0.198,-0.225 0.38,-0.45 0.546,-0.676 0.38,-0.45 0.198,-0.225 0,0"
               style="fill:#f08929;fill-opacity:1;fill-rule:nonzero;stroke:none"
               id="path508" />
          </g>
          <g
             id="g510"
             transform="matrix(0.35277777,0,0,-0.35277777,123.19184,182.06946)">
            <path
               d="M 0,0 C -0.139,0.15 -0.271,0.307 -0.406,0.46 -0.271,0.306 -0.139,0.15 0,0"
               style="fill:#f08929;fill-opacity:1;fill-rule:nonzero;stroke:none"
               id="path512" />
          </g>
          <g
             id="g514"
             transform="matrix(0.35277777,0,0,-0.35277777,129.12927,178.62557)">
            <path
               d="m 0,0 c -0.157,0.121 -0.316,0.242 -0.483,0.362 -3.384,2.428 -8.148,3.996 -12.136,3.996 -2.933,0 -5.146,-0.833 -6.231,-2.345 -1.27,-1.771 -1.155,-4.703 0.317,-8.045 0.838,-1.902 2.044,-3.773 3.464,-5.426 0.435,-0.375 0.876,-0.734 1.328,-1.058 2.059,-1.476 4.04,-2.225 5.887,-2.225 3.283,0 5.692,2.397 7.135,4.409 C 1.281,-7.545 2.738,-3.721 0,0"
               style="fill:#f08929;fill-opacity:1;fill-rule:nonzero;stroke:none"
               id="path516" />
          </g>
          <g
             id="g518"
             transform="matrix(0.35277777,0,0,-0.35277777,122.57885,181.322)">
            <path
               d="M 0,0 C -0.117,0.16 -0.23,0.322 -0.343,0.484 -0.23,0.321 -0.117,0.16 0,0"
               style="fill:#f08929;fill-opacity:1;fill-rule:nonzero;stroke:none"
               id="path520" />
          </g>
          <g
             id="g522"
             transform="matrix(0.35277777,0,0,-0.35277777,122.30213,180.91627)">
            <path
               d="M 0,0 C -0.099,0.154 -0.197,0.308 -0.292,0.463 -0.197,0.307 -0.099,0.154 0,0"
               style="fill:#f08929;fill-opacity:1;fill-rule:nonzero;stroke:none"
               id="path524" />
          </g>
          <g
             id="g526"
             transform="matrix(0.35277777,0,0,-0.35277777,122.87592,181.70649)">
            <path
               d="M 0,0 C -0.13,0.158 -0.256,0.321 -0.382,0.483 -0.256,0.321 -0.131,0.159 0,0"
               style="fill:#f08929;fill-opacity:1;fill-rule:nonzero;stroke:none"
               id="path528" />
          </g>
          <g
             id="g530"
             transform="matrix(0.35277777,0,0,-0.35277777,119.72675,186.27842)">
            <path
               d="M 0,0 C -0.034,0.054 -0.067,0.108 -0.099,0.164 -0.067,0.108 -0.034,0.054 0,0"
               style="fill:#f08929;fill-opacity:1;fill-rule:nonzero;stroke:none"
               id="path532" />
          </g>
          <g
             id="g534"
             transform="matrix(0.35277777,0,0,-0.35277777,140.07021,176.87146)">
            <path
               d="M 0,0 C -0.113,0.117 -0.226,0.235 -0.346,0.35 -0.226,0.235 -0.113,0.117 0,0"
               style="fill:#f08929;fill-opacity:1;fill-rule:nonzero;stroke:none"
               id="path536" />
          </g>
          <g
             id="g538"
             transform="matrix(0.35277777,0,0,-0.35277777,139.62871,176.46802)">
            <path
               d="M 0,0 C 0.112,-0.089 0.215,-0.184 0.322,-0.275 0.214,-0.184 0.113,-0.089 0,0"
               style="fill:#f08929;fill-opacity:1;fill-rule:nonzero;stroke:none"
               id="path540" />
          </g>
          <g
             id="g542"
             transform="matrix(0.35277777,0,0,-0.35277777,119.87125,186.48197)">
            <path
               d="M 0,0 C -0.013,0.016 -0.024,0.034 -0.037,0.049 -0.024,0.034 -0.013,0.016 0,0"
               style="fill:#f08929;fill-opacity:1;fill-rule:nonzero;stroke:none"
               id="path544" />
          </g>
          <g
             id="g546"
             transform="matrix(0.35277777,0,0,-0.35277777,140.22942,177.04411)">
            <path
               d="M 0,0 C 0.111,-0.128 0.219,-0.258 0.324,-0.389 0.219,-0.258 0.111,-0.128 0,0"
               style="fill:#f08929;fill-opacity:1;fill-rule:nonzero;stroke:none"
               id="path548" />
          </g>
          <g
             id="g550"
             transform="matrix(0.35277777,0,0,-0.35277777,120.23856,186.82995)">
            <path
               d="M 0,0 C -0.026,0.019 -0.052,0.043 -0.078,0.063 -0.052,0.042 -0.026,0.02 0,0"
               style="fill:#f08929;fill-opacity:1;fill-rule:nonzero;stroke:none"
               id="path552" />
          </g>
          <g
             id="g554"
             transform="matrix(0.35277777,0,0,-0.35277777,129.06587,176.82355)">
            <path
               d="M 0,0 C -0.194,0.15 -0.393,0.299 -0.598,0.446 -0.393,0.299 -0.194,0.15 0,0"
               style="fill:#f08929;fill-opacity:1;fill-rule:nonzero;stroke:none"
               id="path556" />
          </g>
          <g
             id="g558"
             transform="matrix(0.35277777,0,0,-0.35277777,121.39955,181.79313)">
            <path
               d="M 0,0 C -0.089,0.132 -0.181,0.262 -0.268,0.395 -0.181,0.262 -0.09,0.132 0,0"
               style="fill:#f08929;fill-opacity:1;fill-rule:nonzero;stroke:none"
               id="path560" />
          </g>
          <g
             id="g562"
             transform="matrix(0.35277777,0,0,-0.35277777,138.57559,183.45002)">
            <path
               d="m 0,0 c -0.325,-0.328 -0.779,-0.515 -1.24,-0.515 -0.461,0 -0.913,0.187 -1.241,0.515 -0.327,0.325 -0.514,0.779 -0.514,1.24 0,0.461 0.187,0.915 0.514,1.24 0.326,0.328 0.78,0.515 1.241,0.515 C -0.777,2.995 -0.325,2.808 0,2.48 0.328,2.155 0.515,1.701 0.515,1.24 0.515,0.779 0.328,0.325 0,0 M -4.364,3.939 C -4.69,3.611 -5.143,3.424 -5.605,3.424 c -0.461,0 -0.915,0.187 -1.24,0.515 -0.327,0.325 -0.515,0.777 -0.515,1.24 0,0.463 0.188,0.915 0.515,1.24 0.325,0.328 0.779,0.515 1.24,0.515 0.462,0 0.915,-0.187 1.241,-0.515 0.327,-0.325 0.515,-0.777 0.515,-1.24 0,-0.463 -0.188,-0.915 -0.515,-1.24 m -2.724,-5.2 c -0.326,-0.326 -0.779,-0.513 -1.241,-0.513 -0.463,0 -0.915,0.187 -1.24,0.513 -0.327,0.327 -0.515,0.779 -0.515,1.242 0,0.461 0.188,0.913 0.515,1.24 0.325,0.326 0.777,0.513 1.24,0.513 0.462,0 0.915,-0.187 1.241,-0.513 0.328,-0.327 0.514,-0.779 0.514,-1.24 0,-0.463 -0.186,-0.915 -0.514,-1.242 M 5.147,17.589 C 4.878,17.796 4.6,18 4.304,18.196 c -2.776,1.828 -8.29,3.963 -14.697,3.963 -5.571,0 -9.681,-1.185 -16,-3.83 2.765,-2.313 4.314,-4.992 4.605,-7.981 0.284,-2.921 -0.703,-6.051 -2.856,-9.051 -2.756,-3.842 -6.209,-5.873 -9.987,-5.873 -2.597,0 -5.266,0.97 -7.933,2.884 -2.007,1.439 -3.886,3.339 -5.456,5.448 0.054,-0.073 0.103,-0.149 0.158,-0.222 -0.425,-0.601 -0.819,-1.21 -1.175,-1.824 -2.714,-4.673 -3.577,-8.551 -2.497,-11.214 0.075,-0.185 0.161,0.026 0.25,-0.141 0.403,-0.226 0.754,-0.062 0.955,-0.062 h 43.422 c 4.701,0 10.983,6.472 13.719,14.586 1.348,3.999 1.389,8.725 -1.665,12.71"
               style="fill:#f08929;fill-opacity:1;fill-rule:nonzero;stroke:none"
               id="path564" />
          </g>
          <g
             id="g566"
             transform="matrix(0.35277777,0,0,-0.35277777,120.02926,186.65106)">
            <path
               d="M 0,0 C 0.042,-0.041 0.083,-0.079 0.126,-0.117 0.084,-0.079 0.042,-0.04 0,0"
               style="fill:#f08929;fill-opacity:1;fill-rule:nonzero;stroke:none"
               id="path568" />
          </g>
          <g
             id="g570"
             transform="matrix(0.35277777,0,0,-0.35277777,120.44144,186.96401)">
            <path
               d="M 0,0 C -0.045,0.026 -0.09,0.053 -0.136,0.082 -0.089,0.053 -0.045,0.027 0,0"
               style="fill:#f08929;fill-opacity:1;fill-rule:nonzero;stroke:none"
               id="path572" />
          </g>
          <g
             id="g574"
             transform="matrix(0.35277777,0,0,-0.35277777,120.45075,182.02117)">
            <path
               d="m 0,0 c 0.47,0.809 1.002,1.609 1.589,2.394 1.8,-3.164 4.392,-6.105 7.224,-8.136 2.668,-1.914 5.337,-2.884 7.934,-2.884 3.777,0 7.23,2.031 9.987,5.873 2.152,3 3.139,6.13 2.856,9.051 -0.33,3.385 -2.27,6.373 -5.767,8.882 -0.578,0.414 -1.186,0.803 -1.817,1.17 6.685,2.834 10.881,4.099 16.639,4.099 6.406,0 11.921,-2.135 14.696,-3.963 C 59.528,12.409 59.902,5.527 58.189,0.445 55.454,-7.669 49.171,-14.524 44.47,-14.524 H 1.049 c -0.631,0.224 -2.646,1.093 -3.546,3.31 C -3.577,-8.551 -2.714,-4.673 0,0 m 3.41,13.978 c 1.085,1.513 3.298,2.346 6.231,2.346 3.988,0 8.752,-1.569 12.136,-3.996 6.251,-4.485 4.595,-9.564 2.105,-13.035 -1.443,-2.011 -3.852,-4.409 -7.135,-4.409 -1.848,0 -3.829,0.749 -5.888,2.226 C 7.889,-0.76 5.223,2.539 3.728,5.934 2.256,9.276 2.14,12.208 3.41,13.978 m -4.479,18.955 c 0.397,0.174 0.828,0.268 1.274,0.268 h 0.01 C 1.032,33.198 1.79,32.882 2.349,32.308 4.139,30.474 3.009,28.601 1.746,27.353 1.412,27.024 1.224,26.574 1.224,26.104 c 0,-0.469 0.188,-0.919 0.522,-1.248 L 7.038,19.631 C 6.43,19.533 5.847,19.4 5.296,19.233 l -7.194,6.972 c 1.342,1.898 2.02,4.346 0.829,6.728 m -6.48,-9.981 c -1.053,0.831 -2.103,0.113 -2.552,-0.194 -1.785,-1.222 -3.281,-1.755 -4.779,-0.387 -0.556,0.507 -0.872,1.221 -0.89,2.011 -0.019,0.876 0.326,1.735 0.947,2.356 0.704,0.704 1.675,1.026 2.662,0.883 0.548,-0.079 1.101,0.105 1.492,0.496 0.392,0.392 0.576,0.945 0.496,1.492 -0.142,0.988 0.18,1.959 0.884,2.663 0.607,0.607 1.417,0.928 2.271,0.929 0.817,-0.008 1.573,-0.329 2.128,-0.906 0.911,-0.945 1.135,-1.855 0.726,-2.952 -0.356,-0.954 -1.07,-1.716 -1.36,-1.999 -0.34,-0.331 -0.531,-0.785 -0.53,-1.259 0,-0.474 0.193,-0.928 0.533,-1.258 l 7.522,-7.29 C 1.449,17.093 0.963,16.589 0.558,16.025 0.397,15.801 0.254,15.566 0.118,15.327 l -7.516,7.491 c -0.048,0.047 -0.098,0.092 -0.151,0.134 m 68.309,-42.93 h -73.213 c -0.535,0 -0.971,0.436 -0.971,0.972 0,0.536 0.436,0.972 0.971,0.972 H 60.76 c 0.535,0 0.971,-0.436 0.971,-0.972 0,-0.536 -0.436,-0.972 -0.971,-0.972 m 0,5.454 h -8.258 c 3.925,3.354 7.263,8.655 9.013,13.848 2.678,7.943 0.227,15.83 -6.243,20.093 -3.333,2.196 -9.451,4.542 -16.627,4.542 -7.161,0 -12.193,-1.805 -20.908,-5.631 -1.892,0.68 -3.855,1.151 -5.766,1.366 l -6.607,6.522 c 1.679,2.395 2.313,5.658 -0.503,8.544 -1.222,1.253 -2.869,1.946 -4.636,1.951 H 0.206 c -1.294,0 -2.564,-0.386 -3.641,-1.084 -1.039,0.693 -2.261,1.072 -3.55,1.084 -0.021,0 -0.041,0 -0.061,0 -1.76,0 -3.479,-0.711 -4.725,-1.957 -1.001,-1.001 -1.645,-2.297 -1.862,-3.672 -1.375,-0.216 -2.671,-0.861 -3.672,-1.862 -1.296,-1.296 -2.015,-3.088 -1.974,-4.918 0.04,-1.757 0.761,-3.363 2.031,-4.523 2.368,-2.163 5.172,-2.302 8.346,-0.419 l 7.937,-7.91 C -1.054,9.772 -0.752,7.921 -0.058,5.96 -1.199,4.609 -2.2,3.201 -3.035,1.763 -6.381,-4 -7.285,-8.832 -5.722,-12.599 c 0.303,-0.732 0.681,-1.369 1.096,-1.925 h -7.827 c -2.471,0 -4.482,-2.011 -4.482,-4.482 0,-2.472 2.011,-4.482 4.482,-4.482 H 60.76 c 2.471,0 4.482,2.01 4.482,4.482 0,2.471 -2.011,4.482 -4.482,4.482"
               style="fill:#3f2d20;fill-opacity:1;fill-rule:nonzero;stroke:none"
               id="path576" />
          </g>
          <g
             id="g578"
             transform="matrix(0.35277777,0,0,-0.35277777,135.63745,184.07581)">
            <path
               d="M 0,0 C 0.461,0 0.915,0.187 1.24,0.513 1.568,0.84 1.755,1.292 1.755,1.755 1.755,2.216 1.568,2.668 1.24,2.995 0.915,3.321 0.461,3.508 0,3.508 -0.463,3.508 -0.915,3.321 -1.24,2.995 -1.568,2.668 -1.755,2.216 -1.755,1.755 -1.755,1.292 -1.568,0.84 -1.24,0.513 -0.915,0.187 -0.463,0 0,0"
               style="fill:#3f2d20;fill-opacity:1;fill-rule:nonzero;stroke:none"
               id="path580" />
          </g>
          <g
             id="g582"
             transform="matrix(0.35277777,0,0,-0.35277777,138.13815,183.63167)">
            <path
               d="M 0,0 C 0.461,0 0.915,0.187 1.24,0.515 1.568,0.84 1.755,1.294 1.755,1.755 1.755,2.216 1.568,2.67 1.24,2.995 0.915,3.323 0.463,3.51 0,3.51 -0.461,3.51 -0.915,3.323 -1.24,2.995 -1.568,2.67 -1.755,2.216 -1.755,1.755 -1.755,1.294 -1.568,0.84 -1.24,0.515 -0.913,0.187 -0.461,0 0,0"
               style="fill:#3f2d20;fill-opacity:1;fill-rule:nonzero;stroke:none"
               id="path584" />
          </g>
          <g
             id="g586"
             transform="matrix(0.35277777,0,0,-0.35277777,136.59845,182.24222)">
            <path
               d="M 0,0 C 0.461,0 0.915,0.187 1.24,0.515 1.568,0.84 1.755,1.292 1.755,1.755 1.755,2.219 1.568,2.67 1.24,2.995 0.915,3.323 0.461,3.51 0,3.51 -0.461,3.51 -0.915,3.323 -1.241,2.995 -1.568,2.67 -1.755,2.219 -1.755,1.755 -1.755,1.292 -1.568,0.84 -1.241,0.515 -0.915,0.187 -0.461,0 0,0"
               style="fill:#3f2d20;fill-opacity:1;fill-rule:nonzero;stroke:none"
               id="path588" />
          </g>
        </g>
      </g>
    </g>
  </g>
</svg>
